<mxfile host="app.diagrams.net" modified="2024-04-25T16:58:19.909Z" agent="Mozilla/5.0 (Windows NT 10.0; Win64; x64) AppleWebKit/537.36 (KHTML, like Gecko) Chrome/124.0.0.0 Safari/537.36" etag="JtrvgUvY4DRvSTuPWqo9" version="24.3.0" type="device">
  <diagram name="PÃ¡gina-1" id="OfY1PBrwAZt20XkR5Erd">
    <mxGraphModel dx="1941" dy="1603" grid="1" gridSize="10" guides="1" tooltips="1" connect="1" arrows="1" fold="1" page="1" pageScale="1" pageWidth="827" pageHeight="1169" math="0" shadow="0">
      <root>
        <mxCell id="0" />
        <mxCell id="1" parent="0" />
        <mxCell id="iqNUQXL-bt5t9uKgnmwg-13" value="Cliente" style="swimlane;fontStyle=1;align=center;verticalAlign=top;childLayout=stackLayout;horizontal=1;startSize=26;horizontalStack=0;resizeParent=1;resizeParentMax=0;resizeLast=0;collapsible=1;marginBottom=0;whiteSpace=wrap;html=1;" parent="1" vertex="1">
          <mxGeometry x="420" y="-150" width="330" height="280" as="geometry" />
        </mxCell>
        <mxCell id="iqNUQXL-bt5t9uKgnmwg-14" value="- nombre: String&lt;div&gt;- apellido: String&lt;/div&gt;&lt;div&gt;- direccion: String&lt;/div&gt;&lt;div&gt;- edad: Int&lt;/div&gt;&lt;div&gt;- sueldoNetoMensual: double&lt;/div&gt;&lt;div&gt;- banco: Banco&lt;/div&gt;" style="text;strokeColor=none;fillColor=none;align=left;verticalAlign=top;spacingLeft=4;spacingRight=4;overflow=hidden;rotatable=0;points=[[0,0.5],[1,0.5]];portConstraint=eastwest;whiteSpace=wrap;html=1;" parent="iqNUQXL-bt5t9uKgnmwg-13" vertex="1">
          <mxGeometry y="26" width="330" height="104" as="geometry" />
        </mxCell>
        <mxCell id="iqNUQXL-bt5t9uKgnmwg-15" value="" style="line;strokeWidth=1;fillColor=none;align=left;verticalAlign=middle;spacingTop=-1;spacingLeft=3;spacingRight=3;rotatable=0;labelPosition=right;points=[];portConstraint=eastwest;strokeColor=inherit;" parent="iqNUQXL-bt5t9uKgnmwg-13" vertex="1">
          <mxGeometry y="130" width="330" height="8" as="geometry" />
        </mxCell>
        <mxCell id="iqNUQXL-bt5t9uKgnmwg-16" value="&lt;div&gt;+ new(String n, String a, String d, Int e, double s, Banco b)&lt;/div&gt;+ getNombre(): String&lt;div&gt;+ getApellido(): String&lt;div&gt;&lt;span style=&quot;background-color: initial;&quot;&gt;+ getDireccion(): String&lt;/span&gt;&lt;/div&gt;&lt;div&gt;+ getEdad(): Int&lt;/div&gt;&lt;div&gt;+ actualizarSueldo(double s): void&lt;/div&gt;&lt;div&gt;+ getSueldoNetoMensual(): double&lt;/div&gt;&lt;div&gt;+ sueldoNetoAnual(): double&lt;/div&gt;&lt;div&gt;+ solicitarCredito(): void&lt;/div&gt;&lt;div&gt;&lt;div&gt;&lt;br&gt;&lt;/div&gt;&lt;/div&gt;&lt;/div&gt;" style="text;strokeColor=none;fillColor=none;align=left;verticalAlign=top;spacingLeft=4;spacingRight=4;overflow=hidden;rotatable=0;points=[[0,0.5],[1,0.5]];portConstraint=eastwest;whiteSpace=wrap;html=1;" parent="iqNUQXL-bt5t9uKgnmwg-13" vertex="1">
          <mxGeometry y="138" width="330" height="142" as="geometry" />
        </mxCell>
        <mxCell id="iqNUQXL-bt5t9uKgnmwg-17" value="&lt;i&gt;Credito&lt;/i&gt;" style="swimlane;fontStyle=1;align=center;verticalAlign=top;childLayout=stackLayout;horizontal=1;startSize=26;horizontalStack=0;resizeParent=1;resizeParentMax=0;resizeLast=0;collapsible=1;marginBottom=0;whiteSpace=wrap;html=1;" parent="1" vertex="1">
          <mxGeometry x="-440" y="30" width="270" height="170" as="geometry" />
        </mxCell>
        <mxCell id="iqNUQXL-bt5t9uKgnmwg-18" value="- monto: double&lt;div&gt;- plazo: Int&lt;/div&gt;&lt;div&gt;- solicitante: Cliente&lt;/div&gt;" style="text;strokeColor=none;fillColor=none;align=left;verticalAlign=top;spacingLeft=4;spacingRight=4;overflow=hidden;rotatable=0;points=[[0,0.5],[1,0.5]];portConstraint=eastwest;whiteSpace=wrap;html=1;" parent="iqNUQXL-bt5t9uKgnmwg-17" vertex="1">
          <mxGeometry y="26" width="270" height="84" as="geometry" />
        </mxCell>
        <mxCell id="iqNUQXL-bt5t9uKgnmwg-19" value="" style="line;strokeWidth=1;fillColor=none;align=left;verticalAlign=middle;spacingTop=-1;spacingLeft=3;spacingRight=3;rotatable=0;labelPosition=right;points=[];portConstraint=eastwest;strokeColor=inherit;" parent="iqNUQXL-bt5t9uKgnmwg-17" vertex="1">
          <mxGeometry y="110" width="270" height="8" as="geometry" />
        </mxCell>
        <mxCell id="iqNUQXL-bt5t9uKgnmwg-20" value="&lt;div&gt;&lt;i&gt;+ new(double m, Int p, Cliente s): void&lt;/i&gt;&lt;/div&gt;&lt;i&gt;+ cumpleLasCondiciones(): Boolean&lt;/i&gt;" style="text;strokeColor=none;fillColor=none;align=left;verticalAlign=top;spacingLeft=4;spacingRight=4;overflow=hidden;rotatable=0;points=[[0,0.5],[1,0.5]];portConstraint=eastwest;whiteSpace=wrap;html=1;" parent="iqNUQXL-bt5t9uKgnmwg-17" vertex="1">
          <mxGeometry y="118" width="270" height="52" as="geometry" />
        </mxCell>
        <mxCell id="iqNUQXL-bt5t9uKgnmwg-21" value="Banco" style="swimlane;fontStyle=1;align=center;verticalAlign=top;childLayout=stackLayout;horizontal=1;startSize=26;horizontalStack=0;resizeParent=1;resizeParentMax=0;resizeLast=0;collapsible=1;marginBottom=0;whiteSpace=wrap;html=1;" parent="1" vertex="1">
          <mxGeometry x="70" y="40" width="310" height="130" as="geometry" />
        </mxCell>
        <mxCell id="iqNUQXL-bt5t9uKgnmwg-22" value="- nombre: String" style="text;strokeColor=none;fillColor=none;align=left;verticalAlign=top;spacingLeft=4;spacingRight=4;overflow=hidden;rotatable=0;points=[[0,0.5],[1,0.5]];portConstraint=eastwest;whiteSpace=wrap;html=1;" parent="iqNUQXL-bt5t9uKgnmwg-21" vertex="1">
          <mxGeometry y="26" width="310" height="26" as="geometry" />
        </mxCell>
        <mxCell id="iqNUQXL-bt5t9uKgnmwg-23" value="" style="line;strokeWidth=1;fillColor=none;align=left;verticalAlign=middle;spacingTop=-1;spacingLeft=3;spacingRight=3;rotatable=0;labelPosition=right;points=[];portConstraint=eastwest;strokeColor=inherit;" parent="iqNUQXL-bt5t9uKgnmwg-21" vertex="1">
          <mxGeometry y="52" width="310" height="8" as="geometry" />
        </mxCell>
        <mxCell id="iqNUQXL-bt5t9uKgnmwg-24" value="+ incorporarCliente(Cliente c): void&lt;div&gt;+ registrarSolicitudDeCredito(Credito c): void&lt;/div&gt;&lt;div&gt;+ evaluarSolicitudes(): void&lt;/div&gt;&lt;div&gt;+ montoTotalDeCreditosAprobados(): double&lt;/div&gt;" style="text;strokeColor=none;fillColor=none;align=left;verticalAlign=top;spacingLeft=4;spacingRight=4;overflow=hidden;rotatable=0;points=[[0,0.5],[1,0.5]];portConstraint=eastwest;whiteSpace=wrap;html=1;" parent="iqNUQXL-bt5t9uKgnmwg-21" vertex="1">
          <mxGeometry y="60" width="310" height="70" as="geometry" />
        </mxCell>
        <mxCell id="iqNUQXL-bt5t9uKgnmwg-25" value="clientes" style="endArrow=block;endFill=1;html=1;edgeStyle=orthogonalEdgeStyle;align=left;verticalAlign=top;rounded=0;exitX=0.5;exitY=0;exitDx=0;exitDy=0;entryX=0;entryY=0.25;entryDx=0;entryDy=0;" parent="1" source="iqNUQXL-bt5t9uKgnmwg-21" target="iqNUQXL-bt5t9uKgnmwg-13" edge="1">
          <mxGeometry x="-0.7046" y="-20" relative="1" as="geometry">
            <mxPoint x="310" y="-70" as="sourcePoint" />
            <mxPoint x="470" y="-70" as="targetPoint" />
            <mxPoint as="offset" />
          </mxGeometry>
        </mxCell>
        <mxCell id="iqNUQXL-bt5t9uKgnmwg-26" value="*" style="edgeLabel;resizable=0;html=1;align=left;verticalAlign=bottom;" parent="iqNUQXL-bt5t9uKgnmwg-25" connectable="0" vertex="1">
          <mxGeometry x="-1" relative="1" as="geometry">
            <mxPoint x="140" y="-147" as="offset" />
          </mxGeometry>
        </mxCell>
        <mxCell id="iqNUQXL-bt5t9uKgnmwg-27" value="creditosSolicitados" style="endArrow=block;endFill=1;html=1;edgeStyle=orthogonalEdgeStyle;align=left;verticalAlign=top;rounded=0;exitX=0;exitY=0.25;exitDx=0;exitDy=0;entryX=1;entryY=0.25;entryDx=0;entryDy=0;" parent="1" source="iqNUQXL-bt5t9uKgnmwg-21" target="iqNUQXL-bt5t9uKgnmwg-17" edge="1">
          <mxGeometry y="9" relative="1" as="geometry">
            <mxPoint x="430" y="230" as="sourcePoint" />
            <mxPoint x="590" y="230" as="targetPoint" />
            <mxPoint as="offset" />
          </mxGeometry>
        </mxCell>
        <mxCell id="iqNUQXL-bt5t9uKgnmwg-28" value="*" style="edgeLabel;resizable=0;html=1;align=left;verticalAlign=bottom;" parent="iqNUQXL-bt5t9uKgnmwg-27" connectable="0" vertex="1">
          <mxGeometry x="-1" relative="1" as="geometry">
            <mxPoint x="-210" y="-1" as="offset" />
          </mxGeometry>
        </mxCell>
        <mxCell id="iqNUQXL-bt5t9uKgnmwg-29" value="CreditoPersonal" style="swimlane;fontStyle=1;align=center;verticalAlign=top;childLayout=stackLayout;horizontal=1;startSize=26;horizontalStack=0;resizeParent=1;resizeParentMax=0;resizeLast=0;collapsible=1;marginBottom=0;whiteSpace=wrap;html=1;" parent="1" vertex="1">
          <mxGeometry x="-630" y="270" width="270" height="130" as="geometry" />
        </mxCell>
        <mxCell id="iqNUQXL-bt5t9uKgnmwg-30" value="-" style="text;strokeColor=none;fillColor=none;align=left;verticalAlign=top;spacingLeft=4;spacingRight=4;overflow=hidden;rotatable=0;points=[[0,0.5],[1,0.5]];portConstraint=eastwest;whiteSpace=wrap;html=1;" parent="iqNUQXL-bt5t9uKgnmwg-29" vertex="1">
          <mxGeometry y="26" width="270" height="44" as="geometry" />
        </mxCell>
        <mxCell id="iqNUQXL-bt5t9uKgnmwg-31" value="" style="line;strokeWidth=1;fillColor=none;align=left;verticalAlign=middle;spacingTop=-1;spacingLeft=3;spacingRight=3;rotatable=0;labelPosition=right;points=[];portConstraint=eastwest;strokeColor=inherit;" parent="iqNUQXL-bt5t9uKgnmwg-29" vertex="1">
          <mxGeometry y="70" width="270" height="8" as="geometry" />
        </mxCell>
        <mxCell id="iqNUQXL-bt5t9uKgnmwg-32" value="+ cumpleLasCondiciones(): Boolean" style="text;strokeColor=none;fillColor=none;align=left;verticalAlign=top;spacingLeft=4;spacingRight=4;overflow=hidden;rotatable=0;points=[[0,0.5],[1,0.5]];portConstraint=eastwest;whiteSpace=wrap;html=1;" parent="iqNUQXL-bt5t9uKgnmwg-29" vertex="1">
          <mxGeometry y="78" width="270" height="52" as="geometry" />
        </mxCell>
        <mxCell id="iqNUQXL-bt5t9uKgnmwg-33" value="CreditoHipotecario" style="swimlane;fontStyle=1;align=center;verticalAlign=top;childLayout=stackLayout;horizontal=1;startSize=26;horizontalStack=0;resizeParent=1;resizeParentMax=0;resizeLast=0;collapsible=1;marginBottom=0;whiteSpace=wrap;html=1;" parent="1" vertex="1">
          <mxGeometry x="-240" y="270" width="270" height="130" as="geometry" />
        </mxCell>
        <mxCell id="iqNUQXL-bt5t9uKgnmwg-34" value="- propiedadDeGarantia: Propoiedad&amp;nbsp;" style="text;strokeColor=none;fillColor=none;align=left;verticalAlign=top;spacingLeft=4;spacingRight=4;overflow=hidden;rotatable=0;points=[[0,0.5],[1,0.5]];portConstraint=eastwest;whiteSpace=wrap;html=1;" parent="iqNUQXL-bt5t9uKgnmwg-33" vertex="1">
          <mxGeometry y="26" width="270" height="44" as="geometry" />
        </mxCell>
        <mxCell id="iqNUQXL-bt5t9uKgnmwg-35" value="" style="line;strokeWidth=1;fillColor=none;align=left;verticalAlign=middle;spacingTop=-1;spacingLeft=3;spacingRight=3;rotatable=0;labelPosition=right;points=[];portConstraint=eastwest;strokeColor=inherit;" parent="iqNUQXL-bt5t9uKgnmwg-33" vertex="1">
          <mxGeometry y="70" width="270" height="8" as="geometry" />
        </mxCell>
        <mxCell id="iqNUQXL-bt5t9uKgnmwg-36" value="+ cumpleLasCondiciones(): Boolean&lt;div&gt;+ informarAlBancoLaPropiedad(): void&lt;/div&gt;" style="text;strokeColor=none;fillColor=none;align=left;verticalAlign=top;spacingLeft=4;spacingRight=4;overflow=hidden;rotatable=0;points=[[0,0.5],[1,0.5]];portConstraint=eastwest;whiteSpace=wrap;html=1;" parent="iqNUQXL-bt5t9uKgnmwg-33" vertex="1">
          <mxGeometry y="78" width="270" height="52" as="geometry" />
        </mxCell>
        <mxCell id="iqNUQXL-bt5t9uKgnmwg-37" value="Extends" style="endArrow=block;endSize=16;endFill=0;html=1;rounded=0;exitX=0.5;exitY=0;exitDx=0;exitDy=0;entryX=0;entryY=0.5;entryDx=0;entryDy=0;" parent="1" source="iqNUQXL-bt5t9uKgnmwg-29" target="iqNUQXL-bt5t9uKgnmwg-20" edge="1">
          <mxGeometry width="160" relative="1" as="geometry">
            <mxPoint x="-280" y="280" as="sourcePoint" />
            <mxPoint x="-120" y="280" as="targetPoint" />
          </mxGeometry>
        </mxCell>
        <mxCell id="iqNUQXL-bt5t9uKgnmwg-38" value="Extends" style="endArrow=block;endSize=16;endFill=0;html=1;rounded=0;exitX=0.5;exitY=0;exitDx=0;exitDy=0;entryX=1;entryY=0.5;entryDx=0;entryDy=0;" parent="1" source="iqNUQXL-bt5t9uKgnmwg-33" target="iqNUQXL-bt5t9uKgnmwg-20" edge="1">
          <mxGeometry width="160" relative="1" as="geometry">
            <mxPoint x="-485" y="280" as="sourcePoint" />
            <mxPoint x="-430" y="184" as="targetPoint" />
          </mxGeometry>
        </mxCell>
        <mxCell id="iqNUQXL-bt5t9uKgnmwg-39" value="Propiedad" style="swimlane;fontStyle=1;align=center;verticalAlign=top;childLayout=stackLayout;horizontal=1;startSize=26;horizontalStack=0;resizeParent=1;resizeParentMax=0;resizeLast=0;collapsible=1;marginBottom=0;whiteSpace=wrap;html=1;" parent="1" vertex="1">
          <mxGeometry x="-240" y="455" width="290" height="160" as="geometry" />
        </mxCell>
        <mxCell id="iqNUQXL-bt5t9uKgnmwg-40" value="- direccion: String&lt;div&gt;- valorFiscal: double&lt;/div&gt;&lt;div&gt;- descripcion: String&lt;/div&gt;" style="text;strokeColor=none;fillColor=none;align=left;verticalAlign=top;spacingLeft=4;spacingRight=4;overflow=hidden;rotatable=0;points=[[0,0.5],[1,0.5]];portConstraint=eastwest;whiteSpace=wrap;html=1;" parent="iqNUQXL-bt5t9uKgnmwg-39" vertex="1">
          <mxGeometry y="26" width="290" height="54" as="geometry" />
        </mxCell>
        <mxCell id="iqNUQXL-bt5t9uKgnmwg-41" value="" style="line;strokeWidth=1;fillColor=none;align=left;verticalAlign=middle;spacingTop=-1;spacingLeft=3;spacingRight=3;rotatable=0;labelPosition=right;points=[];portConstraint=eastwest;strokeColor=inherit;" parent="iqNUQXL-bt5t9uKgnmwg-39" vertex="1">
          <mxGeometry y="80" width="290" height="8" as="geometry" />
        </mxCell>
        <mxCell id="iqNUQXL-bt5t9uKgnmwg-42" value="+ new(String d, double v, String descripcion): void&lt;div&gt;+ getDireccion(): String&lt;/div&gt;&lt;div&gt;+ getValorFiscal(): double&lt;/div&gt;&lt;div&gt;+ getDescripcion(): String&lt;/div&gt;" style="text;strokeColor=none;fillColor=none;align=left;verticalAlign=top;spacingLeft=4;spacingRight=4;overflow=hidden;rotatable=0;points=[[0,0.5],[1,0.5]];portConstraint=eastwest;whiteSpace=wrap;html=1;" parent="iqNUQXL-bt5t9uKgnmwg-39" vertex="1">
          <mxGeometry y="88" width="290" height="72" as="geometry" />
        </mxCell>
      </root>
    </mxGraphModel>
  </diagram>
</mxfile>
